HIERARCHY
ROOT hips
{
	OFFSET 0.000000 104.274902 0.000000
	CHANNELS 6 Xposition Yposition Zposition Xrotation Yrotation Zrotation
	JOINT spine
	{
		OFFSET 0.000000 10.181549 0.131524
		CHANNELS 6 Xposition Yposition Zposition Xrotation Yrotation Zrotation
		JOINT chest
		{
			OFFSET 0.000000 9.893990 -1.470706
			CHANNELS 3 Xrotation Yrotation Zrotation
			JOINT upperChest
			{
				OFFSET 0.000000 9.220787 -1.370637
				CHANNELS 3 Xrotation Yrotation Zrotation
				JOINT neck
				{
					OFFSET 0.000000 16.740372 -2.049022
					CHANNELS 6 Xposition Yposition Zposition Xrotation Yrotation Zrotation
					JOINT head
					{
						OFFSET 0.000000 9.617859 1.684976
						CHANNELS 6 Xposition Yposition Zposition Xrotation Yrotation Zrotation
						JOINT headEnd
						{
							OFFSET 0.000000 22.037384 7.501072
							CHANNELS 6 Xposition Yposition Zposition Xrotation Yrotation Zrotation
							End Site
							{
								OFFSET 0.000000 23.106567 -2.828246
							}
						}
					}
				}
				JOINT rightShoulder
				{
					OFFSET -4.570000 11.014877 -2.160840
					CHANNELS 6 Xposition Yposition Zposition Xrotation Yrotation Zrotation
					JOINT rightUpperArm
					{
						OFFSET -10.592867 -0.524796 -2.232105
						CHANNELS 3 Xrotation Yrotation Zrotation
						JOINT rightLowerArm
						{
							OFFSET -27.841497 0.000000 -0.000002
							CHANNELS 3 Xrotation Yrotation Zrotation
							JOINT rightHand
							{
								OFFSET -28.328812 0.000000 -0.000001
								CHANNELS 3 Xrotation Yrotation Zrotation
								JOINT rightThumbProximal
								{
									OFFSET -2.464798 -1.573990 2.681911
									CHANNELS 6 Xposition Yposition Zposition Xrotation Yrotation Zrotation
									JOINT rightThumbIntermediate
									{
										OFFSET -3.244781 -1.873383 1.873376
										CHANNELS 3 Xrotation Yrotation Zrotation
										JOINT rightThumbDistal
										{
											OFFSET -2.646263 -1.527817 1.527818
											CHANNELS 6 Xposition Yposition Zposition Xrotation Yrotation Zrotation
											JOINT rightHandThumb4
											{
												OFFSET -1.994591 -1.151581 1.151575
												CHANNELS 6 Xposition Yposition Zposition Xrotation Yrotation Zrotation
												End Site
												{
													OFFSET -1.860176 -1.142715 1.365483
												}
											}
										}
									}
								}
								JOINT rightIndexProximal
								{
									OFFSET -9.108299 -0.517883 2.259803
									CHANNELS 6 Xposition Yposition Zposition Xrotation Yrotation Zrotation
									JOINT rightIndexIntermediate
									{
										OFFSET -3.699997 0.000000 0.000000
										CHANNELS 3 Xrotation Yrotation Zrotation
										JOINT rightIndexDistal
										{
											OFFSET -2.850006 0.000000 0.000000
											CHANNELS 3 Xrotation Yrotation Zrotation
											JOINT rightHandIndex4
											{
												OFFSET -2.772194 0.000000 0.000000
												CHANNELS 3 Xrotation Yrotation Zrotation
												End Site
												{
													OFFSET -2.772202 0.000000 -0.000484
												}
											}
										}
									}
								}
								JOINT rightMiddleProximal
								{
									OFFSET -9.532501 0.000000 -0.000000
									CHANNELS 6 Xposition Yposition Zposition Xrotation Yrotation Zrotation
									JOINT rightMiddleIntermediate
									{
										OFFSET -3.699997 0.000000 0.000000
										CHANNELS 3 Xrotation Yrotation Zrotation
										JOINT rightMiddleDistal
										{
											OFFSET -2.949997 0.000000 0.000000
											CHANNELS 3 Xrotation Yrotation Zrotation
											JOINT rightHandMiddle4
											{
												OFFSET -2.946594 0.000000 0.000000
												CHANNELS 3 Xrotation Yrotation Zrotation
												End Site
												{
													OFFSET -2.946602 0.000000 -0.000982
												}
											}
										}
									}
								}
								JOINT rightRingProximal
								{
									OFFSET -9.103600 -0.043106 -1.865100
									CHANNELS 6 Xposition Yposition Zposition Xrotation Yrotation Zrotation
									JOINT rightRingIntermediate
									{
										OFFSET -3.379303 0.000000 0.000000
										CHANNELS 3 Xrotation Yrotation Zrotation
										JOINT rightRingDistal
										{
											OFFSET -2.889694 0.000000 0.000000
											CHANNELS 3 Xrotation Yrotation Zrotation
											JOINT rightHandRing4
											{
												OFFSET -2.638802 0.000000 0.000000
												CHANNELS 3 Xrotation Yrotation Zrotation
												End Site
												{
													OFFSET -2.638802 0.000000 0.004218
												}
											}
										}
									}
								}
								JOINT rightLittleProximal
								{
									OFFSET -8.076698 -0.486725 -3.806299
									CHANNELS 6 Xposition Yposition Zposition Xrotation Yrotation Zrotation
									JOINT rightLittleIntermediate
									{
										OFFSET -3.600006 0.000000 0.000000
										CHANNELS 3 Xrotation Yrotation Zrotation
										JOINT rightLittleDistal
										{
											OFFSET -2.099998 0.000000 0.000000
											CHANNELS 3 Xrotation Yrotation Zrotation
											JOINT rightHandPinky4
											{
												OFFSET -2.115791 0.000000 0.000000
												CHANNELS 3 Xrotation Yrotation Zrotation
												End Site
												{
													OFFSET -2.115799 0.000000 0.000174
												}
											}
										}
									}
								}
							}
						}
					}
				}
				JOINT leftShoulder
				{
					OFFSET 4.570400 11.014679 -2.160816
					CHANNELS 6 Xposition Yposition Zposition Xrotation Yrotation Zrotation
					JOINT leftUpperArm
					{
						OFFSET 10.592373 -0.524597 -2.232116
						CHANNELS 3 Xrotation Yrotation Zrotation
						JOINT leftLowerArm
						{
							OFFSET 27.841488 0.000000 0.000001
							CHANNELS 3 Xrotation Yrotation Zrotation
							JOINT leftHand
							{
								OFFSET 28.328808 0.000000 -0.000000
								CHANNELS 3 Xrotation Yrotation Zrotation
								JOINT leftThumbProximal
								{
									OFFSET 2.466103 -1.576202 2.681698
									CHANNELS 6 Xposition Yposition Zposition Xrotation Yrotation Zrotation
									JOINT leftThumbIntermediate
									{
										OFFSET 3.243317 -1.872528 1.872530
										CHANNELS 3 Xrotation Yrotation Zrotation
										JOINT leftThumbDistal
										{
											OFFSET 2.647881 -1.528763 1.528754
											CHANNELS 6 Xposition Yposition Zposition Xrotation Yrotation Zrotation
											JOINT leftHandThumb4
											{
												OFFSET 1.998924 -1.154083 1.154080
												CHANNELS 6 Xposition Yposition Zposition Xrotation Yrotation Zrotation
												End Site
												{
													OFFSET 1.884041 -1.149155 1.337651
												}
											}
										}
									}
								}
								JOINT leftIndexProximal
								{
									OFFSET 9.109299 -0.518005 2.259900
									CHANNELS 6 Xposition Yposition Zposition Xrotation Yrotation Zrotation
									JOINT leftIndexIntermediate
									{
										OFFSET 3.699997 0.000000 0.000000
										CHANNELS 3 Xrotation Yrotation Zrotation
										JOINT leftIndexDistal
										{
											OFFSET 2.850006 0.000000 0.000000
											CHANNELS 3 Xrotation Yrotation Zrotation
											JOINT leftHandIndex4
											{
												OFFSET 2.774895 0.000000 0.000000
												CHANNELS 3 Xrotation Yrotation Zrotation
												End Site
												{
													OFFSET 2.774902 0.000000 -0.000072
												}
											}
										}
									}
								}
								JOINT leftMiddleProximal
								{
									OFFSET 9.533401 0.000000 0.000000
									CHANNELS 6 Xposition Yposition Zposition Xrotation Yrotation Zrotation
									JOINT leftMiddleIntermediate
									{
										OFFSET 3.699997 0.000000 0.000000
										CHANNELS 3 Xrotation Yrotation Zrotation
										JOINT leftMiddleDistal
										{
											OFFSET 2.949997 0.000000 0.000000
											CHANNELS 3 Xrotation Yrotation Zrotation
											JOINT leftHandMiddle4
											{
												OFFSET 2.952896 0.000000 0.000000
												CHANNELS 3 Xrotation Yrotation Zrotation
												End Site
												{
													OFFSET 2.952904 0.000000 0.000165
												}
											}
										}
									}
								}
								JOINT leftRingProximal
								{
									OFFSET 9.104500 -0.042999 -1.865101
									CHANNELS 6 Xposition Yposition Zposition Xrotation Yrotation Zrotation
									JOINT leftRingIntermediate
									{
										OFFSET 3.149994 0.000000 0.000000
										CHANNELS 3 Xrotation Yrotation Zrotation
										JOINT leftRingDistal
										{
											OFFSET 2.950005 0.000000 0.000000
											CHANNELS 3 Xrotation Yrotation Zrotation
											JOINT leftHandRing4
											{
												OFFSET 2.644302 0.000000 0.000000
												CHANNELS 3 Xrotation Yrotation Zrotation
												End Site
												{
													OFFSET 2.644302 0.000000 0.000083
												}
											}
										}
									}
								}
								JOINT leftLittleProximal
								{
									OFFSET 8.077805 -0.486893 -3.806302
									CHANNELS 6 Xposition Yposition Zposition Xrotation Yrotation Zrotation
									JOINT leftLittleIntermediate
									{
										OFFSET 3.600006 0.000000 0.000000
										CHANNELS 3 Xrotation Yrotation Zrotation
										JOINT leftLittleDistal
										{
											OFFSET 2.099998 0.000000 0.000000
											CHANNELS 3 Xrotation Yrotation Zrotation
											JOINT leftHandPinky4
											{
												OFFSET 2.125496 0.000000 0.000000
												CHANNELS 3 Xrotation Yrotation Zrotation
												End Site
												{
													OFFSET 2.125504 0.000000 -0.001254
												}
											}
										}
									}
								}
							}
						}
					}
				}
			}
		}
	}
	JOINT rightUpperLeg
	{
		OFFSET -8.207800 -6.751701 -1.599544
		CHANNELS 6 Xposition Yposition Zposition Xrotation Yrotation Zrotation
		JOINT rightLowerLeg
		{
			OFFSET 0.000004 -44.370152 0.345934
			CHANNELS 3 Xrotation Yrotation Zrotation
			JOINT rightFoot
			{
				OFFSET 0.000004 -44.423664 -3.043535
				CHANNELS 3 Xrotation Yrotation Zrotation
				JOINT rightToes
				{
					OFFSET 0.000001 -8.728691 10.710592
					CHANNELS 3 Xrotation Yrotation Zrotation
					JOINT rightToesEnd
					{
						OFFSET 0.000000 -0.000665 9.278101
						CHANNELS 3 Xrotation Yrotation Zrotation
						End Site
						{
							OFFSET 0.000000 -0.000665 9.278103
						}
					}
				}
			}
		}
	}
	JOINT leftUpperLeg
	{
		OFFSET 8.207800 -6.751701 -1.599544
		CHANNELS 6 Xposition Yposition Zposition Xrotation Yrotation Zrotation
		JOINT leftLowerLeg
		{
			OFFSET 0.000004 -44.370037 0.346940
			CHANNELS 3 Xrotation Yrotation Zrotation
			JOINT leftFoot
			{
				OFFSET 0.000004 -44.423611 -3.044388
				CHANNELS 3 Xrotation Yrotation Zrotation
				JOINT leftToes
				{
					OFFSET 0.000001 -8.728690 10.710592
					CHANNELS 3 Xrotation Yrotation Zrotation
					JOINT leftToesEnd
					{
						OFFSET 0.000000 -0.000680 9.278101
						CHANNELS 3 Xrotation Yrotation Zrotation
						End Site
						{
							OFFSET 0.000000 -0.000680 9.278101
						}
					}
				}
			}
		}
	}
}
MOTION
Frames: 4
Frame Time: 0.033333
-0.482745 102.357162 2.169625 -2.762868 -1.576301 0.467091 0.000000 10.181562 0.131523 0.974733 -0.195755 0.270145 1.951248 -0.398948 0.701337 1.951246 -0.398948 0.701337 -0.000000 16.740404 -2.049021 3.211920 0.052757 -1.853802 -0.000000 9.617819 1.684978 -0.897358 -2.184888 0.776000 -0.000000 22.037354 7.501078 -0.000000 -0.000000 -0.000000 -4.570000 11.014868 -2.160840 0.596441 9.756684 9.532255 2.188231 -3.802335 69.110654 -0.000010 22.853376 0.000020 21.976678 -1.517117 15.751166 -2.464799 -1.573995 2.681912 -7.239408 -12.374620 -8.817136 6.779458 -16.130134 -0.408009 -2.646277 -1.527805 1.527821 -1.239885 -7.844532 -2.405704 -1.994603 -1.151586 1.151586 0.000000 -0.000004 0.000005 -9.108301 -0.517881 2.259804 0.255789 -1.872237 15.558831 0.255796 -1.872223 15.558836 0.255815 -1.872239 15.558852 -0.000002 0.000004 0.000002 -9.532503 0.000004 0.000002 0.255789 -1.872238 15.558833 0.255795 -1.872224 15.558833 0.255813 -1.872242 15.558850 0.000001 0.000002 0.000002 -9.103596 -0.043104 -1.865100 0.255789 -1.872237 15.558826 0.255793 -1.872223 15.558836 0.255814 -1.872240 15.558853 -0.000004 0.000004 0.000005 -8.076681 -0.486728 -3.806298 0.255789 -1.872240 15.558833 0.255804 -1.872228 15.558841 0.255799 -1.872228 15.558845 0.000001 -0.000000 0.000003 4.570404 11.014694 -2.160815 0.553599 -4.562287 -13.274584 -5.813314 3.274576 -67.860607 -0.000006 -6.891611 -0.000012 24.045539 -8.529462 -9.775989 2.466101 -1.576220 2.681698 -5.106285 11.019738 11.497726 15.813729 17.325034 4.474451 2.647881 -1.528732 1.528757 5.439104 15.158394 4.308189 1.998913 -1.154096 1.154070 0.000004 0.000003 0.000005 9.109291 -0.518010 2.259901 0.125670 1.312255 -10.941948 0.125684 1.312258 -10.941926 0.125661 1.312257 -10.941934 -0.000004 0.000000 0.000001 9.533401 0.000001 0.000000 0.125310 1.310352 -10.925967 0.126039 1.314148 -10.957897 0.125657 1.312253 -10.941931 -0.000006 -0.000002 0.000001 9.104496 -0.042998 -1.865101 0.125670 1.312255 -10.941946 0.125684 1.312257 -10.941926 0.125666 1.312256 -10.941934 0.000001 0.000002 0.000002 8.077805 -0.486899 -3.806298 0.880120 5.295996 -10.475026 0.119397 -2.743167 -11.443418 0.125677 1.312260 -10.941935 0.000004 0.000001 0.000000 -8.207801 -6.751706 -1.599543 -6.117075 -3.593325 0.289871 19.939182 -6.100265 -2.577069 -10.922728 -6.842323 2.343418 -0.866833 0.000005 -0.000004 -0.000000 -0.000000 0.000000 8.207799 -6.751702 -1.599544 -4.660912 12.763418 1.345667 18.772577 2.579174 1.084841 -11.383467 0.430013 -1.801895 0.000021 -0.000005 0.000004 -0.000000 0.000000 0.000000 
-0.413836 102.361191 2.217514 -2.723439 -1.656543 0.395215 -0.000000 10.181561 0.131525 0.962027 -0.181313 0.277062 1.925689 -0.369342 0.706847 1.925690 -0.369342 0.706846 -0.000001 16.740379 -2.049020 3.187519 0.043805 -1.864627 0.000000 9.617859 1.684977 -1.011098 -2.261795 0.843694 -0.000000 22.037384 7.501074 -0.000000 0.000000 -0.000000 -4.570003 11.014872 -2.160840 0.596801 9.763473 9.526639 2.186211 -3.853683 69.109814 -0.000000 22.643467 0.000010 22.567509 -1.507155 15.697709 -2.464809 -1.573989 2.681912 -7.239406 -12.374621 -8.817137 6.779455 -16.130134 -0.408013 -2.646262 -1.527801 1.527813 -1.239885 -7.844534 -2.405710 -1.994605 -1.151585 1.151581 0.000001 -0.000001 -0.000000 -9.108297 -0.517878 2.259803 0.255792 -1.872237 15.558831 0.255796 -1.872223 15.558833 0.255814 -1.872240 15.558853 -0.000001 -0.000004 -0.000003 -9.532503 0.000004 -0.000000 0.255792 -1.872236 15.558831 0.255796 -1.872223 15.558835 0.255812 -1.872240 15.558855 -0.000004 0.000001 0.000003 -9.103596 -0.043109 -1.865100 0.255792 -1.872237 15.558829 0.255797 -1.872224 15.558835 0.255813 -1.872239 15.558853 -0.000002 0.000002 0.000005 -8.076689 -0.486728 -3.806299 0.255792 -1.872239 15.558831 0.255803 -1.872228 15.558843 0.255799 -1.872227 15.558846 -0.000001 -0.000001 0.000001 4.570401 11.014671 -2.160815 0.555676 -4.481776 -13.341140 -5.656024 3.208154 -67.987833 0.000003 -7.080337 -0.000009 23.721957 -8.316970 -10.139606 2.466082 -1.576207 2.681702 -5.106319 11.019738 11.497752 15.813741 17.325024 4.474436 2.647888 -1.528736 1.528751 5.439102 15.158410 4.308205 1.998917 -1.154087 1.154080 0.000000 -0.000001 -0.000000 9.109285 -0.518018 2.259899 0.125670 1.312251 -10.941953 0.125667 1.312251 -10.941916 0.125667 1.312245 -10.941936 -0.000003 0.000001 -0.000003 9.533387 0.000001 -0.000002 0.125301 1.310364 -10.925944 0.126032 1.314138 -10.957930 0.125670 1.312252 -10.941935 -0.000006 -0.000002 -0.000002 9.104485 -0.042997 -1.865101 0.125670 1.312251 -10.941953 0.125666 1.312252 -10.941916 0.125664 1.312245 -10.941935 0.000000 0.000001 -0.000002 8.077782 -0.486894 -3.806302 0.880107 5.296001 -10.475010 0.119402 -2.743163 -11.443405 0.125668 1.312250 -10.941934 -0.000002 -0.000001 -0.000003 -8.207800 -6.751717 -1.599543 -6.085160 -3.627831 0.279085 19.856221 -5.967930 -2.519605 -10.903134 -6.757835 2.337851 -0.893595 0.000002 -0.000001 -0.000000 -0.000000 0.000000 8.207799 -6.751690 -1.599544 -4.669473 12.747349 1.356343 18.775498 2.684694 1.105514 -11.432607 0.426033 -1.797258 0.000003 0.000000 0.000000 0.000000 0.000000 0.000000 
-0.333076 102.373734 2.285410 -2.676743 -1.714212 0.370331 -0.000000 10.181543 0.131524 0.956570 -0.171827 0.271228 1.914692 -0.350650 0.696367 1.914689 -0.350650 0.696367 -0.000000 16.740368 -2.049023 3.170640 0.035199 -1.851309 0.000000 9.617853 1.684975 -1.136214 -2.300192 0.884846 -0.000000 22.037384 7.501070 -0.000001 0.000000 0.000000 -4.570000 11.014865 -2.160840 0.596857 9.772370 9.526267 2.218454 -3.891844 69.103408 -0.000012 22.561887 0.000026 23.086043 -1.548429 15.659643 -2.464809 -1.573992 2.681907 -7.239406 -12.374621 -8.817137 6.779458 -16.130139 -0.408013 -2.646262 -1.527812 1.527815 -1.239883 -7.844532 -2.405703 -1.994594 -1.151568 1.151575 -0.000004 -0.000003 0.000001 -9.108294 -0.517880 2.259802 0.255790 -1.872237 15.558828 0.255795 -1.872222 15.558840 0.255809 -1.872239 15.558855 0.000001 -0.000003 0.000002 -9.532507 0.000002 -0.000002 0.255790 -1.872237 15.558831 0.255795 -1.872223 15.558835 0.255808 -1.872239 15.558845 0.000000 -0.000000 -0.000000 -9.103603 -0.043108 -1.865104 0.255790 -1.872237 15.558826 0.255793 -1.872223 15.558836 0.255808 -1.872237 15.558853 -0.000003 0.000002 0.000003 -8.076700 -0.486724 -3.806298 0.255790 -1.872240 15.558831 0.255808 -1.872230 15.558843 0.255801 -1.872228 15.558845 -0.000001 -0.000001 0.000003 4.570403 11.014671 -2.160815 0.555794 -4.462309 -13.417371 -5.483716 3.249661 -68.067842 0.000005 -7.143893 0.000024 23.522649 -7.867178 -10.705638 2.466094 -1.576200 2.681696 -5.106313 11.019733 11.497724 15.813718 17.325022 4.474458 2.647880 -1.528743 1.528753 5.439091 15.158404 4.308189 1.998913 -1.154082 1.154071 -0.000003 0.000004 0.000001 9.109295 -0.518010 2.259900 0.125660 1.312246 -10.941937 0.125681 1.312250 -10.941949 0.125667 1.312252 -10.941929 -0.000002 0.000001 -0.000001 9.533397 0.000001 -0.000001 0.125289 1.310352 -10.925962 0.126063 1.314155 -10.957903 0.125669 1.312254 -10.941929 -0.000000 -0.000002 -0.000003 9.104501 -0.042997 -1.865102 0.125660 1.312246 -10.941937 0.125680 1.312250 -10.941949 0.125667 1.312251 -10.941928 0.000001 -0.000001 -0.000001 8.077791 -0.486895 -3.806303 0.880101 5.295996 -10.475009 0.119421 -2.743158 -11.443406 0.125669 1.312253 -10.941928 -0.000002 -0.000002 -0.000004 -8.207799 -6.751715 -1.599543 -6.027688 -3.716485 0.185873 19.751596 -5.834663 -2.439205 -10.896348 -6.637236 2.340839 -0.895479 -0.000003 -0.000000 -0.000000 0.000002 0.000000 8.207800 -6.751700 -1.599545 -4.607871 12.690280 1.275985 18.669897 2.824510 1.150182 -11.438781 0.418630 -1.797586 -0.000028 -0.000001 0.000002 -0.000000 0.000000 0.000000 
-0.221897 102.384789 2.373249 -2.627626 -1.721412 0.411736 -0.000000 10.181547 0.131526 0.961503 -0.174625 0.251743 1.924577 -0.357301 0.666220 1.924576 -0.357302 0.666220 0.000001 16.740349 -2.049019 3.153843 0.029505 -1.831029 0.000000 9.617848 1.684978 -1.276390 -2.318684 0.936652 -0.000000 22.037369 7.501076 -0.000000 -0.000000 0.000000 -4.569999 11.014845 -2.160839 0.596787 9.789891 9.528782 2.281517 -3.882574 69.066716 -0.000011 22.602216 0.000022 23.144871 -1.584609 15.689288 -2.464808 -1.573991 2.681910 -7.239405 -12.374623 -8.817130 6.779461 -16.130134 -0.408012 -2.646270 -1.527821 1.527816 -1.239885 -7.844532 -2.405707 -1.994583 -1.151580 1.151577 0.000003 -0.000005 -0.000000 -9.108305 -0.517865 2.259805 0.255791 -1.872239 15.558829 0.255792 -1.872222 15.558840 0.255808 -1.872238 15.558853 -0.000002 -0.000001 -0.000002 -9.532499 0.000019 -0.000001 0.255791 -1.872239 15.558828 0.255793 -1.872223 15.558833 0.255811 -1.872240 15.558852 -0.000004 0.000001 0.000003 -9.103610 -0.043094 -1.865103 0.255793 -1.872239 15.558828 0.255795 -1.872223 15.558836 0.255809 -1.872241 15.558852 -0.000003 0.000001 0.000005 -8.076692 -0.486728 -3.806298 0.255791 -1.872241 15.558828 0.255806 -1.872228 15.558841 0.255800 -1.872228 15.558843 0.000001 0.000001 0.000003 4.570401 11.014667 -2.160814 0.553341 -4.496085 -13.498794 -5.325936 3.386742 -68.091194 0.000001 -7.104024 0.000016 23.403993 -7.278410 -11.268160 2.466094 -1.576201 2.681704 -5.106287 11.019736 11.497718 15.813710 17.325028 4.474455 2.647881 -1.528745 1.528751 5.439096 15.158398 4.308179 1.998925 -1.154099 1.154074 -0.000002 0.000003 -0.000000 9.109289 -0.518010 2.259901 0.125667 1.312251 -10.941925 0.125685 1.312255 -10.941949 0.125661 1.312243 -10.941925 -0.000002 -0.000000 -0.000001 9.533394 0.000001 0.000002 0.125293 1.310357 -10.925940 0.126036 1.314144 -10.957925 0.125681 1.312253 -10.941937 -0.000002 0.000000 -0.000000 9.104486 -0.042997 -1.865100 0.125667 1.312251 -10.941925 0.125685 1.312254 -10.941949 0.125661 1.312243 -10.941924 0.000001 -0.000000 -0.000000 8.077787 -0.486896 -3.806298 0.880117 5.296001 -10.475031 0.119409 -2.743160 -11.443404 0.125667 1.312248 -10.941933 -0.000004 -0.000002 -0.000002 -8.207799 -6.751694 -1.599543 -5.992936 -3.853564 -0.017589 19.706209 -5.650968 -2.342885 -10.929405 -6.498739 2.359531 -0.877916 -0.000010 -0.000000 -0.000000 -0.000000 0.000000 8.207799 -6.751698 -1.599542 -4.491879 12.566232 1.065883 18.502947 3.019513 1.237532 -11.425852 0.411151 -1.803612 -0.000024 -0.000002 0.000001 0.000000 0.000000 0.000000 
